<svg xmlns="http://www.w3.org/2000/svg" viewBox="0 0 192 192">
  <rect width="192" height="192" rx="32" fill="#08091A"/>
  <circle cx="96" cy="96" r="80" fill="#0F1225"/>
  <!-- Star glow -->
  <circle cx="96" cy="96" r="40" fill="#E8C44A" opacity="0.1"/>
  <!-- BIRTH QUEST text (pixel style) -->
  <text x="96" y="72" font-family="monospace" font-size="14" font-weight="bold"
        fill="#E8C44A" text-anchor="middle" letter-spacing="2">BIRTH</text>
  <text x="96" y="90" font-family="monospace" font-size="14" font-weight="bold"
        fill="#E8C44A" text-anchor="middle" letter-spacing="2">QUEST</text>
  <!-- Baby icon simplified -->
  <circle cx="96" cy="128" r="22" fill="#F4C090"/>
  <path d="M82 122 Q90 116 96 114 Q102 116 110 122 Q102 130 96 131 Q90 130 82 122Z" fill="#F4A8C0"/>
  <circle cx="88" cy="124" r="3.5" fill="#F4C090"/>
  <circle cx="104" cy="124" r="3.5" fill="#F4C090"/>
  <path d="M86 120 Q90 124 94 120" stroke="#2A1808" stroke-width="2" fill="none" stroke-linecap="round"/>
  <path d="M98 120 Q102 124 106 120" stroke="#2A1808" stroke-width="2" fill="none" stroke-linecap="round"/>
  <ellipse cx="96" cy="126" rx="2" ry="1.5" fill="#E0A878"/>
  <path d="M90 130 Q96 134 102 130" stroke="#C08060" stroke-width="1.5" fill="none" stroke-linecap="round"/>
  <!-- Stars -->
  <polygon points="148,52 150,58 156,58 151,62 153,68 148,64 143,68 145,62 140,58 146,58" fill="#E8C44A" opacity="0.6"/>
  <polygon points="44,48 45.5,53 51,53 46.5,56.5 48,62 44,59 40,62 41.5,56.5 37,53 42.5,53" fill="#E8C44A" opacity="0.4"/>
</svg>
